<?xml version="1.0" encoding="UTF-8" standalone="no"?>
<!-- Created with Inkscape (http://www.inkscape.org/) -->

<svg
   version="1.1"
   id="svg1"
   width="64"
   height="64"
   viewBox="0 0 800 800"
   xmlns="http://www.w3.org/2000/svg"
   xmlns:svg="http://www.w3.org/2000/svg">
  <defs
     id="defs1" />
  <g
     id="g1"
     style="display:inline"
     transform="translate(-371.4627,-173.45979)">
    <path
       style="display:inline;fill:#000000;stroke-width:0.894416"
       d="m 703.1779,860.05563 c 4.50119,-15.4495 18.25821,-22.7007 39.39603,-20.7653 5.76641,0.52797 10.60053,0.8394 10.74248,0.69207 0.14195,-0.14734 -8.6536,-14.18109 -19.54566,-31.18614 l -19.80375,-30.91825 0.43818,-4.78395 c 0.55113,-6.01713 1.22417,-6.13336 -14.13074,2.44046 -7.11603,3.97342 -13.01473,7.14502 -13.1082,7.048 -0.0935,-0.097 0.93136,-4.0656 2.27742,-8.81906 4.04245,-14.27547 4.05932,-14.61285 0.69806,-13.95901 -9.08222,1.76666 -38.20918,14.57644 -75.25369,33.0959 -76.69196,38.3402 -87.51715,43.20794 -121.15214,54.47827 -12.99629,4.35476 -45.54349,13.38144 -46.11398,12.78931 -0.14944,-0.15513 1.52854,-2.33171 3.72885,-4.83685 40.20669,-45.77679 68.46935,-73.9802 91.29387,-91.10249 9.59519,-7.19802 12.31253,-7.86825 -37.0206,9.13095 -50.54953,17.41836 -46.80841,17.01057 -35.91682,3.91505 61.35219,-73.76691 199.79901,-220.31774 262.38234,-277.74093 35.27103,-32.36285 44.54791,-41.70962 57.79744,-58.23288 11.89524,-14.83436 30.18276,-40.77913 29.3517,-41.64171 -0.22539,-0.23395 -4.51877,1.6255 -9.54083,4.13212 -10.96489,5.47282 -11.12807,5.49501 -8.57762,1.16658 54.5098,-92.51009 136.7399,-125.04647 208.60356,-82.53915 4.3172,2.55365 7.7395,3.9457 9.7003,3.9457 8.0745,0 36.4262,5.57398 47.1506,9.26986 27.7131,9.55058 45.0377,26.87435 45.8615,45.85946 0.4255,9.80607 -0.2226,10.58918 -5.3811,6.50215 -2.2479,-1.78094 -5.5271,-3.51849 -7.2872,-3.86121 -11.2482,-2.19025 -75.1207,6.9299 -78.1502,11.1588 -3.5974,5.02168 -1.6581,24.35079 2.9764,29.66617 0.7864,0.90195 1.0308,1.63989 0.5431,1.63989 -1.4416,0 -9.75,-9.59084 -11.378,-13.13422 -2.0738,-4.51382 -2.8515,-4.08705 -1.9325,1.06045 1.5225,8.5288 3.6646,14.57485 10.4115,29.38711 8.3548,18.3423 13.9904,38.02819 11.5976,40.51185 -0.211,0.21897 -3.5977,-4.26895 -7.526,-9.97314 -7.0105,-10.1798 -18.35,-25.1325 -18.747,-24.72048 -0.1108,0.11507 1.717,5.11415 4.0618,11.10905 10.0721,25.74994 12.7002,36.90059 12.7625,54.14854 0.066,18.17806 -3.5275,34.26642 -5.2406,23.46414 -2.0078,-12.66173 -9.8493,-31.996 -20.32624,-50.11757 -5.2624,-9.1022 -6.9048,-11.46693 -6.0124,-8.65667 15.91064,50.10437 18.43204,82.82063 7.97884,103.52838 l -1.211,2.39899 -0.51138,-3.18783 c -0.28129,-1.75331 -0.93463,-6.67328 -1.45172,-10.93327 -1.48253,-12.21207 -5.22157,-26.27031 -5.22157,-19.63242 0,66.86751 -55.03509,139.23358 -132.12603,173.73351 -4.82853,2.16088 -9.07145,4.35426 -9.4287,4.87418 -8.23933,11.99077 -27.88732,51.56397 -26.64836,53.67272 0.62892,1.07047 8.13174,13.08631 16.67293,26.70187 16.42808,26.18811 16.9043,26.72884 23.54022,26.72884 1.40648,0 6.31785,0.89663 10.91419,1.9925 l 8.35697,1.99251 10.68317,-2.0093 c 26.0864,-4.90635 41.59195,1.92511 45.86478,20.20717 l 0.60567,2.59147 -2.64284,-1.41853 c -9.22641,-4.9522 -22.15251,-6.50201 -21.89681,-2.62537 l 0.16527,2.50587 -43.8957,-0.0199 c -129.22995,-0.0586 -143.68041,-0.28121 -142.69191,-2.1983 0.49984,-0.9694 0.9088,-2.05372 0.9088,-2.4096 0,-1.46142 -13.23076,0.56271 -20.45209,3.12889 -7.61594,2.70643 -7.71434,2.71682 -7.14269,0.75471 z m 114.62208,-22.67625 8.72305,-3.829 -10.34294,-10.97846 c -5.68863,-6.03815 -15.63845,-16.58219 -22.11072,-23.43119 l -11.76777,-12.45274 -3.84365,6.07414 c -4.80884,7.59943 -4.55885,7.67607 -6.93769,-2.12693 -3.73258,-15.38162 -3.53456,-15.22503 -9.54694,-7.55044 l -4.35487,5.55885 -0.76592,-3.06794 c -0.42126,-1.68736 -0.6344,-7.50152 -0.47366,-12.92034 0.33706,-11.36246 -0.1912,-11.31267 -4.50951,0.42499 -3.63325,9.87553 -3.54347,10.21695 8.86697,33.71835 11.37276,21.53638 12.29038,22.87009 16.64838,24.19772 2.12741,0.64811 9.79394,3.1716 17.03673,5.60777 7.24279,2.43616 13.50323,4.46872 13.9121,4.51681 0.40886,0.0481 4.66875,-1.63564 9.46644,-3.74159 z M 654.69766,723.58904 c 112.43693,-29.36534 152.14233,-47.27362 209.1701,-94.34172 3.44995,-2.84743 0.33496,-1.48309 -6.89494,3.01993 -51.41336,32.0219 -91.36077,49.58201 -196.37314,86.32174 -36.46602,12.75805 -36.84905,13.08254 -5.90202,5.00005 z M 953.1619,545.51476 c 11.52026,-54.72367 -41.60033,-78.5222 -113.08893,-50.66492 -8.79787,3.42831 -8.30644,3.43739 7.39868,0.13666 67.2092,-14.12526 101.66609,2.22975 102.96094,48.87052 0.29109,10.48523 0.80523,10.79751 2.72931,1.65774 z M 1084.572,372.34063 c -14.1062,-4.59056 -42.0258,-7.16258 -63.1526,-5.81777 -25.57273,1.62781 -24.70491,2.27735 3.0155,2.25705 25.9368,-0.019 42.5726,1.07803 54.8696,3.61825 7.5801,1.56583 10.169,1.53756 5.2675,-0.0575 z M 974.86623,357.11828 c 3.45313,-1.80739 9.62357,-9.24454 9.62357,-11.59915 0,-2.08826 -21.15968,-10.04253 -26.71482,-10.04253 -4.02146,0 -6.68892,4.10717 -5.41086,8.33128 0.20578,0.68014 0.61039,2.35675 0.89912,3.72579 1.92188,9.1127 13.06177,14.05514 21.60299,9.58461 z"
       id="path1" />
    <path
       style="display:inline;fill:#00ffff;stroke-width:0.0769231"
       d="m 47.213419,14.650381 c -0.3746,-0.189693 -0.608199,-0.523253 -0.679733,-0.970606 -0.07055,-0.441189 0.05357,-0.641313 0.397766,-0.641313 0.492777,0 2.030087,0.589264 2.030087,0.77815 0,0.134781 -0.300024,0.515863 -0.565634,0.718454 -0.36216,0.276233 -0.783557,0.317327 -1.182486,0.115315 z"
       id="path4"
       transform="matrix(12.5,0,0,12.5,371.4627,173.45979)" />
  </g>
</svg>
